<svg width="35" height="43" viewBox="0 0 35 43" fill="none" xmlns="http://www.w3.org/2000/svg">
<path d="M19.5 1.5H5.5C4.43913 1.5 3.42172 1.92143 2.67157 2.67157C1.92143 3.42172 1.5 4.43913 1.5 5.5V37.5C1.5 38.5609 1.92143 39.5783 2.67157 40.3284C3.42172 41.0786 4.43913 41.5 5.5 41.5H29.5C30.5609 41.5 31.5783 41.0786 32.3284 40.3284C33.0786 39.5783 33.5 38.5609 33.5 37.5V15.5L19.5 1.5Z" fill="#03509C"/>
<path d="M19.5 1.5V15.5H33.5" fill="#03509C"/>
<path d="M19.5 1.5H5.5C4.43913 1.5 3.42172 1.92143 2.67157 2.67157C1.92143 3.42172 1.5 4.43913 1.5 5.5V37.5C1.5 38.5609 1.92143 39.5783 2.67157 40.3284C3.42172 41.0786 4.43913 41.5 5.5 41.5H29.5C30.5609 41.5 31.5783 41.0786 32.3284 40.3284C33.0786 39.5783 33.5 38.5609 33.5 37.5V15.5M19.5 1.5L33.5 15.5M19.5 1.5V15.5H33.5" stroke="white" stroke-width="2" stroke-linecap="round" stroke-linejoin="round"/>
</svg>
